{"title":"Arthur.2011.CAM.XviD-NoGRP  ","uid":6334984,"size":738210661,"categoryP":"video","categoryS":"movies","magnet":"?xt=urn:btih:aada47bd13fcb9083a563b917830fb1213ee5176&amp;dn=Arthur.2011.CAM.XviD-NoGRP++&amp;tr=udp%3A%2F%2Ftracker.openbittorrent.com%3A80&amp;tr=udp%3A%2F%2Fopen.demonii.com%3A1337&amp;tr=udp%3A%2F%2Ftracker.coppersurfer.tk%3A6969&amp;tr=udp%3A%2F%2Fexodus.desync.com%3A6969","seeders":1,"leechers":0,"uploader":"crazy-torrent","files":2,"time":1303429100,"description":" &lt;a href=&quot;http://www.scenespeeds.com/&quot; rel=&quot;nofollow&quot; target=&quot;_NEW&quot;&gt;http://www.scenespeeds.com/&lt;/a&gt;\n\n &lt;a href=&quot;\nhttp://www.imdb.com/title/tt1334512/&quot; rel=&quot;nofollow&quot; target=&quot;_NEW&quot;&gt;\nhttp://www.imdb.com/title/tt1334512/&lt;/a&gt;\nGeneral\nComplete name : Arthur.2011.CAM.XviD-NoGRP.avi\nFormat : AVI\nFormat/Info : Audio Video Interleave\nFile size : 704 MiB\nDuration : 1h 44mn\nOverall bit rate : 946 Kbps\nWriting application : Lavf52.61.0\nVideo\nID : 0\nFormat : MPEG-4 Visual\nFormat profile : Simple@L1\nFormat settings, BVOP : No\nFormat settings, QPel : No\nFormat settings, GMC : No warppoints\nFormat settings, Matrix : Default (H.263)\nCodec ID : FMP4\nDuration : 1h 44mn\nBit rate : 806 Kbps\nWidth : 720 pixels\nHeight : 480 pixels\nDisplay aspect ratio : 16:9\nFrame rate : 25.000 fps\nStandard : NTSC\nResolution : 8 bits\nColorimetry : 4:2:0\nScan type : Progressive\nBits/(Pixel*Frame) : 0.093\nStream size : 600 MiB (85%)\nWriting library : Lavc52.66.0\nAudio\nID : 1\nFormat : MPEG Audio\nFormat version : Version 1\nFormat profile : Layer 2\nCodec ID : 50\nDuration : 1h 44mn\nBit rate mode : Constant\nBit rate : 128 Kbps\nChannel(s) : 2 channels\nSampling rate : 44.1 KHz\nStream size : 95.2 MiB (14%)\nAlignment : Aligned on interleaves\nInterleave, duration : 26 ms (0.65 video frame)\n\n\nPlot\nA drunken playboy stands to lose a wealthy inheritance when he falls for a woman his family doesn't like.\n\n &lt;a href=&quot;\nhttp://www.scenespeeds.com/&quot; rel=&quot;nofollow&quot; target=&quot;_NEW&quot;&gt;\nhttp://www.scenespeeds.com/&lt;/a&gt;\n\n &lt;a href=&quot;\nhttp://image.bayimg.com/jahcjaadl.jpg&quot; rel=&quot;nofollow&quot; target=&quot;_NEW&quot;&gt;\nhttp://image.bayimg.com/jahcjaadl.jpg&lt;/a&gt;","torrent":{"xt":"urn:btih:aada47bd13fcb9083a563b917830fb1213ee5176","amp;dn":"Arthur.2011.CAM.XviD-NoGRP++","amp;tr":["udp%3A%2F%2Ftracker.openbittorrent.com%3A80","udp%3A%2F%2Fopen.demonii.com%3A1337","udp%3A%2F%2Ftracker.coppersurfer.tk%3A6969","udp%3A%2F%2Fexodus.desync.com%3A6969"],"infoHash":"aada47bd13fcb9083a563b917830fb1213ee5176","infoHashBuffer":{"type":"Buffer","data":[170,218,71,189,19,252,185,8,58,86,59,145,120,48,251,18,19,238,81,118]},"announce":[],"urlList":[]}}